<?xml version="1.0" encoding="UTF-8"?>
<svg id="Calque_2" xmlns="http://www.w3.org/2000/svg" viewBox="0 0 286.82 59.17">
  <defs>
    <style>
      .cls-1 {
        fill: #638c1c;
      }
    </style>
  </defs>
  <g id="Calque_1-2" data-name="Calque_1">
    <g>
      <path class="cls-1" d="M102.19,44.81h-2.52v3.06h2.52c1.09,0,1.62-.71,1.62-1.52s-.55-1.54-1.62-1.54Z"/>
      <path class="cls-1" d="M129.72,10.35h-.59c-.82,0-1.24.46-1.24,1.39v1.3c0,.94.42,1.41,1.24,1.41h.59v-4.1Z"/>
      <path class="cls-1" d="M85.49,33.87c-.17,0-.31.06-.43.18-.12.12-.18.25-.18.42s.06.29.18.41c.13.12.26.18.42.18s.28-.06.4-.17c.12-.12.17-.25.17-.42s-.06-.3-.17-.42c-.12-.12-.25-.17-.4-.17Z"/>
      <path class="cls-1" d="M212.34,35.06c.16,0,.28-.06.4-.17.12-.12.17-.25.17-.42s-.06-.3-.17-.42c-.12-.12-.25-.17-.4-.17-.17,0-.31.06-.43.18-.12.12-.18.25-.18.42s.06.29.18.41c.13.12.26.18.42.18Z"/>
      <path class="cls-1" d="M110.48,35.06c.16,0,.28-.06.4-.17.12-.12.17-.25.17-.42s-.06-.3-.17-.42c-.12-.12-.25-.17-.4-.17-.17,0-.31.06-.43.18-.12.12-.18.25-.18.42s.06.29.18.41c.13.12.26.18.42.18Z"/>
      <path class="cls-1" d="M180.53,44.81h-2.52v3.06h2.52c1.09,0,1.62-.71,1.62-1.52s-.55-1.54-1.62-1.54Z"/>
      <path class="cls-1" d="M60.67,33.87c-.17,0-.31.06-.43.18-.12.12-.18.25-.18.42s.06.29.18.41c.13.12.26.18.42.18s.28-.06.4-.17c.12-.12.17-.25.17-.42s-.06-.3-.17-.42c-.12-.12-.25-.17-.4-.17Z"/>
      <path class="cls-1" d="M132.56,34.43c.56-.33,1.03-.77,1.4-1.31.3-.45.51-.94.63-1.47h-7.87c.12.53.33,1.02.63,1.47.36.54.83.99,1.4,1.31.56.32,1.2.49,1.9.49s1.35-.16,1.91-.49Z"/>
      <path class="cls-1" d="M123.44,44.61h-2.55v2.96h2.58c1.05,0,1.49-.78,1.49-1.42-.01-.7-.46-1.54-1.52-1.54Z"/>
      <path class="cls-1" d="M180.4,34.46c0,.16.06.29.18.41.13.12.26.18.42.18s.28-.06.4-.17c.12-.12.17-.25.17-.42s-.06-.3-.17-.42c-.12-.12-.25-.17-.4-.17-.17,0-.31.06-.43.18-.12.12-.18.25-.18.42Z"/>
      <path class="cls-1" d="M190.9,44.61h-2.55v2.96h2.58c1.05,0,1.49-.78,1.49-1.42-.01-.7-.46-1.54-1.52-1.54Z"/>
      <polygon class="cls-1" points="109.81 49.07 113.31 49.07 111.57 44.95 109.81 49.07"/>
      <path class="cls-1" d="M151.88,31.43l1.31-1.31,2.92,2.96c.46-.68.69-1.46.69-2.34,0-.57-.1-1.11-.31-1.61-.21-.5-.5-.96-.87-1.35-.37-.39-.8-.7-1.28-.92-.48-.22-1.01-.33-1.56-.33s-1.11.11-1.6.34c-.49.23-.92.54-1.29.93-.37.39-.65.84-.86,1.34-.2.5-.3,1.04-.3,1.6s.1,1.1.31,1.59c.21.5.5.95.87,1.35.37.39.81.7,1.3.92.49.22,1.01.33,1.57.33.71,0,1.38-.19,2-.56l-2.91-2.93Z"/>
      <path class="cls-1" d="M142.13,34.88c.12-.12.17-.25.17-.42s-.06-.3-.17-.42c-.12-.12-.25-.17-.4-.17-.17,0-.31.06-.43.18-.12.12-.18.25-.18.42s.06.29.18.41c.13.12.26.18.42.18s.28-.06.4-.17Z"/>
      <polygon class="cls-1" points="32.3 49.07 35.79 49.07 34.05 44.95 32.3 49.07"/>
      <polygon class="cls-1" points="240.79 49.07 244.28 49.07 242.54 44.95 240.79 49.07"/>
      <path class="cls-1" d="M23.56,44.61h-2.55v2.96h2.58c1.05,0,1.49-.78,1.49-1.42-.01-.7-.46-1.54-1.52-1.54Z"/>
      <path class="cls-1" d="M14.3,45.65c0-.59-.43-1.03-1.29-1.03h-2.78v1.99h2.76c.88,0,1.32-.36,1.32-.96Z"/>
      <path class="cls-1" d="M221.99,44.45c-1.93,0-3.26,1.45-3.26,3.29s1.33,3.28,3.26,3.28,3.26-1.39,3.26-3.28-1.29-3.29-3.26-3.29Z"/>
      <path class="cls-1" d="M12.98,48.49h-2.76v2.35h2.78c1.02,0,1.49-.45,1.49-1.16s-.52-1.19-1.52-1.19Z"/>
      <path class="cls-1" d="M31.88,10.35h-3.91v4.1h5.16v-2.71c0-.94-.4-1.39-1.24-1.39Z"/>
      <path class="cls-1" d="M0,0v59.17h286.82V0H0ZM260.95,4.39h2.29v2.27h-2.29v-2.27ZM257.73,4.39h2.29v2.27h-2.29v-2.27ZM224.46,4.39h2.27v10.06h17.84V4.39h2.27v3.68h3.84c2.14,0,3.59,1.41,3.59,3.46v2.92h3.96c-.08-.11-.19-.25-.34-.38-.51-.67-.78-1.43-.78-2.31,0-1.47.63-2.58,1.85-3.27.5-.27,1.24-.42,2.22-.42h2.71v8.65h-39.42V4.39ZM223.71,24.85h4.75v1.85h-2.74v8.04h2.74v1.85h-4.75v-4.95h-1.62v4.95h-4.75v-1.85h2.74v-8.04h-2.74v-1.85h4.75v4.94h1.62v-4.94ZM210.33,33.28c.2-.34.48-.62.83-.82.35-.2.74-.31,1.17-.31s.82.1,1.17.31c.35.2.62.48.83.83.2.35.31.74.31,1.17s-.1.82-.31,1.17c-.2.35-.48.62-.83.82-.35.2-.74.3-1.17.3-.64,0-1.19-.22-1.63-.65-.45-.43-.67-.99-.67-1.64,0-.44.1-.84.31-1.18ZM207.31,29.79v1.85h-6.25v3.1h6.25v1.85h-8.26v-11.75h8.26v1.85h-6.25v3.08h6.25ZM203.01,39.55v.09l-1.68,2.04h-1.83v-.1l1.07-2.03h2.44ZM203.16,4.39h2.27v12.34h-2.27V4.39ZM191.78,14.45h2.81V4.39h2.27v10.06h2.27V4.39h2.31v12.34h-9.66v-2.27ZM182.74,14.45h5.02v-1.37c0-.94-.23-1.6-.71-2.01-.31-.27-.63-.44-.99-.55-.34-.11-.92-.17-1.74-.19v-2.27h.74c1.22,0,2.25.3,3.11.92,1.24.86,1.87,2.21,1.87,4.09v3.67h-7.31v-2.27ZM182.99,33.29c.2.35.31.74.31,1.17s-.1.82-.31,1.17c-.2.35-.48.62-.83.82-.35.2-.74.3-1.17.3-.64,0-1.19-.22-1.63-.65-.45-.43-.67-.99-.67-1.64,0-.44.1-.84.31-1.18.2-.34.48-.62.83-.82.35-.2.74-.31,1.17-.31s.82.1,1.17.31c.35.2.62.48.83.83ZM175.7,4.39h2.29v2.27h-2.29v-2.27ZM140.46,18.23h.29c1.13,0,1.68-.53,1.68-1.56v-8.59h2.27v8.15c0,.31,0,.57-.02.78-.08.86-.29,1.57-.67,2.1-.55.74-1.28,1.18-2.18,1.3-.27.02-.63.06-1.07.06h-.31v-2.24ZM125.62,18.16h3.13c.44,0,.72-.1.84-.31.08-.11.13-.29.13-.48v-.65h-.51c-2.12,0-3.59-1.39-3.59-3.48v-1.72c0-2.04,1.47-3.46,3.59-3.46h2.81v9.01c0,2.18-1.24,3.38-3.48,3.38h-2.92v-2.31ZM121.59,4.39h2.27v12.34h-2.27V4.39ZM122.35,34.74v1.85h-7.03v-1.85h2.51v-8.04h-2.51v-1.85h7.03v1.85h-2.51v8.04h2.51ZM110.21,14.45h2.81V4.39h2.27v10.06h2.27V4.39h2.31v12.34h-9.66v-2.27ZM109.29,32.47c.35-.2.74-.31,1.17-.31s.82.1,1.17.31c.35.2.62.48.83.83.2.35.31.74.31,1.17s-.1.82-.31,1.17c-.2.35-.48.62-.83.82-.35.2-.74.3-1.17.3-.64,0-1.19-.22-1.64-.65-.45-.43-.67-.99-.67-1.64,0-.44.1-.84.31-1.18.2-.34.48-.62.83-.82ZM88.97,4.39h2.27v2.27h-2.27v-2.27ZM85.74,4.39h2.27v2.27h-2.27v-2.27ZM37.11,4.39h2.27v10.06h34.97v-6.38h2.27v6.38h12.34v-6.38h2.27v6.38h14.94v-2.71c0-.94-.4-1.39-1.2-1.39h-3.38v-2.27h3.3c2.12,0,3.59,1.41,3.59,3.46v5.19H37.11V4.39ZM91.07,36.6v-11.75h2.01v9.89h4.56v-9.89h2.01v11.75h-8.58ZM93.92,39.55v.09l-1.68,2.04h-1.83v-.1l1.07-2.03h2.44ZM76.63,18.16v2.31h-2.27v-2.31h2.27ZM68.28,28.35c.19.11.37.2.54.3l3.04,1.76v1.21l-6.18,5.53v-2.39l3.73-3.32c.08-.07.17-.14.26-.22-.15-.07-.28-.15-.4-.22l-3.6-2.13v-1.26l6.18-3.12v2.01l-2.01,1.02c-.36.19-.73.37-1.1.55-.17.09-.35.17-.53.25.02,0,.04.02.05.03ZM22.94,14.45h2.75V4.39h2.27v3.68h3.84c2.14,0,3.59,1.41,3.59,3.46v5.19h-12.45v-2.27ZM16.79,50.44c-.3,1.64-1.67,2.38-3.7,2.38h-5.09v-10.15h5c1.93,0,3.53.87,3.53,2.76,0,.84-.38,1.62-1.35,2.07,1.29.47,1.83,1.77,1.61,2.95ZM27.75,52.82h-2.51l-2.6-3.34h-1.64v3.34h-2.26v-10.15h4.82c2.45,0,3.76,1.64,3.76,3.42-.01,1.32-.41,2.49-2.35,3.19l2.78,3.37v.17ZM37.39,52.82l-.74-1.74h-5.21l-.74,1.74h-2.44l4.55-10.15h2.47l4.55,10.15h-2.45ZM50.3,52.82h-1.94l-5.05-6.5.09,3.34v3.16h-2.29v-10.15h1.94l5.12,6.6-.14-3.19v-3.41h2.28v10.15ZM57.61,53.08c-3.87,0-5.41-2.49-5.42-5.26-.01-2.62,1.7-5.38,5.42-5.38,1.39,0,2.68.54,3.73,1.56l-1.42,1.41c-.61-.59-1.49-.84-2.31-.84-2.31,0-3.21,1.78-3.19,3.26.01,1.48.81,3.16,3.19,3.16.81,0,1.89-.36,2.49-.97l1.41,1.57c-1.04,1.03-2.39,1.49-3.9,1.49ZM62.66,35.63c-.2.35-.48.62-.83.82-.35.2-.74.3-1.17.3-.64,0-1.19-.22-1.63-.65-.45-.43-.67-.99-.67-1.64,0-.44.1-.84.31-1.18.2-.34.48-.62.83-.82.35-.2.74-.31,1.17-.31s.82.1,1.17.31c.35.2.62.48.83.83.2.35.31.74.31,1.17s-.1.82-.31,1.17ZM72.09,52.83h-2.23v-4.02h-4.54v4.02h-2.26v-10.15h2.26v4.06h4.54v-4.06h2.23v10.15ZM73.4,20.47h-2.27v-2.31h2.27v2.31ZM74.27,34.74l3.73-3.32c.08-.07.17-.14.26-.22-.15-.07-.28-.15-.4-.22l-3.6-2.13v-1.26l6.18-3.12v2.01l-2.01,1.02c-.36.19-.73.37-1.1.55-.18.09-.35.17-.53.25.02,0,.04.02.05.03.19.11.37.2.54.3l3.04,1.76v1.21l-6.18,5.53v-2.39ZM82.28,52.82h-7.73v-10.15h7.53v2.07h-5.31v1.96h5v1.99h-5v2.05h5.51v2.09ZM86.64,36.46c-.35.2-.74.3-1.17.3-.64,0-1.19-.22-1.64-.65-.45-.43-.67-.99-.67-1.64,0-.44.1-.84.31-1.18.2-.34.48-.62.83-.82.35-.2.74-.31,1.17-.31s.82.1,1.17.31c.35.2.62.48.83.83.2.35.31.74.31,1.17s-.1.82-.31,1.17c-.2.35-.48.62-.83.82ZM95.42,52.82h-7.73v-10.15h7.53v2.07h-5.31v1.96h5v1.99h-5v2.05h5.51v2.09ZM102.19,49.94h-2.52v2.87h-2.26v-10.15h4.79c2.6,0,3.89,1.68,3.89,3.64s-1.31,3.61-3.89,3.64ZM114.9,52.82l-.74-1.74h-5.21l-.74,1.74h-2.44l4.55-10.15h2.47l4.55,10.15h-2.45ZM127.63,52.82h-2.51l-2.6-3.34h-1.64v3.34h-2.26v-10.15h4.82c2.45,0,3.76,1.64,3.76,3.42-.01,1.32-.41,2.49-2.35,3.19l2.78,3.37v.17ZM126.36,34.97c-.54-.55-.97-1.2-1.27-1.92-.31-.73-.46-1.51-.46-2.33s.15-1.62.46-2.34c.31-.72.74-1.37,1.29-1.92.55-.55,1.19-.99,1.92-1.3.73-.32,1.52-.48,2.34-.48s1.6.16,2.33.47c.73.31,1.38.75,1.93,1.31.55.55.99,1.2,1.3,1.93.32.73.48,1.52.48,2.34s-.15,1.56-.45,2.29c-.3.72-.73,1.37-1.27,1.93-.55.56-1.19,1.01-1.92,1.33-.73.32-1.54.49-2.4.49s-1.65-.16-2.38-.48c-.72-.32-1.37-.76-1.91-1.31ZM138.21,51.22c-.87,1.25-2.26,1.89-4.13,1.89-3.92,0-5.4-2.71-5.4-5.35,0-2.86,1.68-5.39,5.41-5.39,1.38,0,2.63.38,3.79,1.57l-1.41,1.41c-.62-.59-1.57-.9-2.38-.9-1.93,0-3.19,1.1-3.19,3.32,0,1.45.8,3.26,3.19,3.26.71,0,1.38-.12,2.16-.71v-1.62h-2.42v-1.89h4.38v4.42ZM139.41,34.46c0-.44.1-.84.31-1.18.2-.34.48-.62.83-.82.35-.2.74-.31,1.17-.31s.82.1,1.17.31c.35.2.62.48.83.83.2.35.31.74.31,1.17s-.1.82-.31,1.17c-.2.35-.48.62-.83.82-.35.2-.74.3-1.17.3-.64,0-1.19-.22-1.63-.65-.45-.43-.67-.99-.67-1.64ZM149.42,52.82h-1.94l-5.05-6.5.09,3.34v3.16h-2.29v-10.15h1.94l5.12,6.6-.14-3.19v-3.41h2.28v10.15ZM148.47,34.94c-.54-.56-.97-1.21-1.27-1.94-.3-.72-.45-1.5-.45-2.31s.16-1.59.48-2.31c.32-.72.75-1.36,1.3-1.92.55-.55,1.19-1,1.92-1.31.73-.32,1.52-.48,2.34-.48s1.65.16,2.38.49c.72.32,1.37.77,1.91,1.32.54.55.97,1.2,1.28,1.92.31.72.46,1.5.46,2.3,0,.71-.13,1.42-.38,2.1-.22.6-.53,1.15-.92,1.65l1.41,1.41-1.31,1.31-1.44-1.46c-.4.29-.87.52-1.41.71-.64.22-1.3.33-1.96.33-.86,0-1.67-.16-2.41-.49-.74-.32-1.38-.77-1.93-1.33ZM159.61,52.82h-7.73v-10.15h7.53v2.07h-5.31v1.96h5v1.99h-5v2.05h5.51v2.09ZM163.59,16.72h-17.17V4.39h2.27v10.06h30.02v-2.71c0-.94-.4-1.39-1.2-1.39h-3.38v-2.27h3.3c2.12,0,3.59,1.41,3.59,3.46v5.19h-17.44ZM170.16,48.84h-5.44v-1.84h5.44v1.84ZM171.7,37.98h-6.16v-1.18h6.16v1.18ZM180.53,49.94h-2.52v2.87h-2.26v-10.15h4.79c2.6,0,3.89,1.68,3.89,3.64s-1.31,3.61-3.89,3.64ZM195.09,52.82h-2.51l-2.6-3.34h-1.64v3.34h-2.26v-10.15h4.82c2.45,0,3.76,1.64,3.76,3.42-.01,1.32-.41,2.49-2.35,3.19l2.78,3.37v.17ZM195.48,31.96h-3.44v4.64h-2.01v-4.64h-3.44v-7.1h2.01v5.25h4.88v-5.25h2.01v7.1ZM204.52,52.82h-7.73v-10.15h7.53v2.07h-5.31v1.96h5v1.99h-5v2.05h5.51v2.09ZM211.9,52.86h-2.34l-4.24-10.2h2.54l2.86,7.5,2.86-7.5h2.54l-4.22,10.2ZM214.3,17.39c0-1.22.57-2.12,1.76-2.71-.52-.63-.76-1.37-.76-2.18,0-1.26.4-2.31,1.24-3.15.84-.84,1.87-1.28,3.11-1.28h2.54v2.27h-2.44c-1.32,0-2.16.82-2.16,2.1,0,.69.27,1.24.82,1.64.31.25.86.36,1.64.36h2.1v2.27h-4.73c-.57,0-.86.25-.86.72s.29.71.86.71h5.33v2.31h-4.66c-.8,0-1.45-.08-1.91-.25-1.07-.38-1.87-1.59-1.87-2.83ZM221.99,53.06c-3.25,0-5.48-2.02-5.48-5.32s2.23-5.32,5.48-5.32,5.48,2.02,5.48,5.32-2.23,5.32-5.48,5.32ZM233.74,52.82h-2.26v-4.03l-3.89-6.01v-.11h2.61l2.44,4.03,2.57-4.03h2.6v.11l-4.06,6.01v4.03ZM245.88,52.82l-.74-1.74h-5.21l-.74,1.74h-2.44l4.55-10.15h2.47l4.55,10.15h-2.45ZM258.79,52.82h-1.94l-5.05-6.5.09,3.34v3.16h-2.29v-10.15h1.94l5.12,6.6-.15-3.19v-3.41h2.28v10.15ZM266.09,53.08c-3.87,0-5.41-2.49-5.42-5.26-.01-2.62,1.7-5.38,5.42-5.38,1.39,0,2.68.54,3.73,1.56l-1.42,1.41c-.61-.59-1.49-.84-2.31-.84-2.31,0-3.21,1.78-3.19,3.26.01,1.48.81,3.16,3.19,3.16.81,0,1.89-.36,2.49-.97l1.41,1.57c-1.04,1.03-2.39,1.49-3.9,1.49ZM279.27,52.82h-7.73v-10.15h7.53v2.07h-5.31v1.96h5v1.99h-5v2.05h5.51v2.09Z"/>
      <path class="cls-1" d="M133.96,28.32c-.37-.54-.85-.99-1.42-1.32-.56-.32-1.2-.49-1.89-.49s-1.3.16-1.87.48c-.58.32-1.06.76-1.43,1.31-.3.45-.51.94-.62,1.48h7.86c-.12-.53-.33-1.02-.64-1.47Z"/>
      <path class="cls-1" d="M251.98,11.74c0-.94-.42-1.39-1.22-1.39h-3.91v4.1h5.14v-2.71Z"/>
      <path class="cls-1" d="M261.6,14.16v-3.82h-.57c-1.09,0-1.64.46-1.64,1.37,0,1.13.74,1.93,2.22,2.44Z"/>
    </g>
  </g>
</svg>