<?xml version="1.0" encoding="UTF-8"?>
<svg id="Calque_2" xmlns="http://www.w3.org/2000/svg" viewBox="0 0 195.98 125.64">
  <defs>
    <style>
      .cls-1 {
        fill: #638c1c;
      }

      .cls-2 {
        fill: #fff;
      }
    </style>
  </defs>
  <g id="Calque_1-2" data-name="Calque_1">
    <g>
      <path class="cls-2" d="M22.2,124.59c-.73.7-1.67,1.03-2.69,1.03-2.63,0-3.74-1.77-3.75-3.56,0-1.81,1.19-3.65,3.75-3.65.96,0,1.87.36,2.6,1.06l-.89.84c-.47-.44-1.09-.65-1.71-.65-1.71,0-2.45,1.25-2.44,2.4.01,1.14.69,2.34,2.44,2.34.62,0,1.32-.25,1.78-.7l.91.9Z"/>
      <path class="cls-2" d="M27.67,124.16h-3.7l-.61,1.3h-1.45l3.18-6.91h1.46l3.18,6.91h-1.46l-.6-1.3ZM25.82,120l-1.32,2.94h2.63l-1.32-2.94Z"/>
      <rect class="cls-2" x="30.23" y="118.55" width="1.33" height="6.91"/>
      <path class="cls-2" d="M37.39,120.22c-.24-.4-.91-.77-1.68-.77-.99,0-1.47.4-1.47.92,0,.6.73.77,1.58.87,1.48.18,2.85.56,2.85,2.2,0,1.54-1.4,2.2-2.98,2.2-1.45,0-2.56-.44-3.09-1.7l1.11-.56c.31.76,1.13,1.1,1.99,1.1s1.63-.29,1.63-1.04c0-.65-.7-.92-1.64-1.02-1.45-.17-2.78-.54-2.78-2.09,0-1.42,1.44-2,2.74-2.01,1.1,0,2.25.31,2.78,1.37l-1.06.53Z"/>
      <path class="cls-2" d="M44.08,120.22c-.24-.4-.91-.77-1.68-.77-.99,0-1.47.4-1.47.92,0,.6.73.77,1.58.87,1.48.18,2.85.56,2.85,2.2,0,1.54-1.4,2.2-2.97,2.2-1.45,0-2.56-.44-3.09-1.7l1.11-.56c.31.76,1.13,1.1,1.99,1.1s1.63-.29,1.63-1.04c0-.65-.7-.92-1.64-1.02-1.45-.17-2.78-.54-2.78-2.09,0-1.42,1.44-2,2.74-2.01,1.1,0,2.25.31,2.78,1.37l-1.06.53Z"/>
      <polygon class="cls-2" points="51.68 125.46 46.38 125.46 46.38 118.55 51.68 118.55 51.68 119.81 47.7 119.81 47.7 121.41 51.54 121.41 51.54 122.62 47.7 122.62 47.7 124.18 51.68 124.18 51.68 125.46"/>
      <path class="cls-2" d="M61,121.95c.03,1.75-1.06,3.51-3.54,3.51h-2.78v-6.91h2.78c2.43,0,3.51,1.69,3.54,3.4M56,124.21h1.46c1.61,0,2.25-1.15,2.22-2.27-.03-1.08-.68-2.15-2.22-2.15h-1.46v4.42Z"/>
      <polygon class="cls-2" points="67.16 125.46 61.86 125.46 61.86 118.55 67.16 118.55 67.16 119.81 63.18 119.81 63.18 121.41 67.02 121.41 67.02 122.62 63.18 122.62 63.18 124.18 67.16 124.18 67.16 125.46"/>
      <path class="cls-2" d="M76.48,121.95c.03,1.75-1.06,3.51-3.54,3.51h-2.78v-6.91h2.78c2.43,0,3.51,1.69,3.54,3.4M71.48,124.21h1.46c1.61,0,2.25-1.15,2.22-2.27-.03-1.08-.68-2.15-2.22-2.15h-1.46v4.42Z"/>
      <path class="cls-2" d="M82.64,125.46h-5.3v-6.91h5.3v1.26h-3.98v1.59h3.84v1.21h-3.84v1.56h3.98v1.28ZM81.66,116.45h-1.46l-.75,1.34v.06h1.09l1.11-1.35v-.05Z"/>
      <path class="cls-2" d="M86.97,123.43h-2v2.03h-1.33v-6.91c1.11,0,2.23,0,3.34,0,3.46,0,3.47,4.89,0,4.89M84.96,122.23h2c1.71,0,1.7-2.45,0-2.45h-2v2.45Z"/>
      <path class="cls-2" d="M97.43,122.05c-.02,1.79-1.15,3.57-3.64,3.57s-3.64-1.75-3.64-3.56,1.19-3.64,3.64-3.64,3.66,1.83,3.64,3.63M91.47,122.08c.03,1.14.66,2.35,2.33,2.35s2.3-1.23,2.32-2.36c.02-1.16-.65-2.47-2.32-2.47s-2.36,1.31-2.33,2.48M93.58,116.38h.68l1.5,1.36v.06h-1.26l-.59-.58-.58.58h-1.25v-.06l1.5-1.36Z"/>
      <polygon class="cls-2" points="99.84 119.74 97.59 119.74 97.59 118.55 103.42 118.55 103.42 119.74 101.17 119.74 101.17 125.46 99.84 125.46 99.84 119.74"/>
      <polygon class="cls-2" points="111.56 125.46 106.25 125.46 106.25 118.55 111.56 118.55 111.56 119.81 107.58 119.81 107.58 121.41 111.42 121.41 111.42 122.62 107.58 122.62 107.58 124.18 111.56 124.18 111.56 125.46"/>
      <polygon class="cls-2" points="114.84 119.74 112.59 119.74 112.59 118.55 118.42 118.55 118.42 119.74 116.18 119.74 116.18 125.46 114.84 125.46 114.84 119.74"/>
      <path class="cls-2" d="M127.51,121.95c.03,1.75-1.06,3.51-3.54,3.51h-2.78v-6.91h2.78c2.43,0,3.51,1.69,3.54,3.4M122.51,124.21h1.46c1.61,0,2.25-1.15,2.22-2.27-.03-1.08-.68-2.15-2.22-2.15h-1.46v4.42Z"/>
      <polygon class="cls-2" points="133.68 125.46 128.38 125.46 128.38 118.55 133.68 118.55 133.68 119.81 129.7 119.81 129.7 121.41 133.54 121.41 133.54 122.62 129.7 122.62 129.7 124.18 133.68 124.18 133.68 125.46"/>
      <path class="cls-2" d="M142.02,120.24c-.48-.44-1.18-.69-1.8-.69-1.52,0-2.44,1.13-2.44,2.55,0,1.13.68,2.31,2.44,2.31.56,0,1.04-.12,1.6-.55v-1.22h-1.81v-1.16h3.04v2.91c-.7.78-1.58,1.24-2.82,1.24-2.66,0-3.75-1.71-3.75-3.52,0-1.95,1.25-3.74,3.75-3.74.95,0,1.9.36,2.63,1.06l-.83.83Z"/>
      <polygon class="cls-2" points="149.42 125.46 144.12 125.46 144.12 118.55 149.42 118.55 149.42 119.81 145.44 119.81 145.44 121.41 149.28 121.41 149.28 122.62 145.44 122.62 145.44 124.18 149.42 124.18 149.42 125.46"/>
      <path class="cls-2" d="M155.04,120.22c-.24-.4-.91-.77-1.68-.77-.99,0-1.47.4-1.47.92,0,.6.73.77,1.58.87,1.48.18,2.85.56,2.85,2.2,0,1.54-1.4,2.2-2.98,2.2-1.45,0-2.56-.44-3.09-1.7l1.11-.56c.31.76,1.13,1.1,1.99,1.1s1.63-.29,1.63-1.04c0-.65-.7-.92-1.64-1.02-1.45-.17-2.78-.54-2.78-2.09,0-1.42,1.44-2,2.74-2.01,1.1,0,2.24.31,2.78,1.37l-1.06.53Z"/>
      <polygon class="cls-2" points="159.19 119.74 156.95 119.74 156.95 118.55 162.78 118.55 162.78 119.74 160.53 119.74 160.53 125.46 159.19 125.46 159.19 119.74"/>
      <rect class="cls-2" x="163.6" y="118.55" width="1.33" height="6.91"/>
      <path class="cls-2" d="M173.36,122.05c-.02,1.79-1.14,3.57-3.63,3.57s-3.64-1.75-3.64-3.56,1.19-3.64,3.64-3.64,3.65,1.83,3.63,3.63M167.39,122.08c.03,1.14.66,2.35,2.33,2.35s2.3-1.23,2.32-2.36c.02-1.16-.65-2.47-2.32-2.47s-2.36,1.31-2.33,2.48"/>
      <polygon class="cls-2" points="179 118.54 180.33 118.54 180.33 125.46 179.5 125.46 179.5 125.47 175.78 120.8 175.78 125.46 174.44 125.46 174.44 118.55 175.52 118.55 179 122.84 179 118.54"/>
      <rect class="cls-2" x="53.6" y="102.32" width="1.59" height="1.58"/>
      <rect class="cls-2" x="51.34" y="102.32" width="1.59" height="1.58"/>
      <path class="cls-2" d="M57.15,99.79h-1.96v-4.36h-1.59v4.36h-8.63v-4.36h-1.59v5.87c0,.7-.39,1.07-1.18,1.07h-.2v1.53h.21c1.46,0,2.67-.56,2.75-2.56h13.77v-5.91h-1.59v4.36Z"/>
      <rect class="cls-2" x="57.15" y="102.32" width="1.59" height="1.58"/>
      <rect class="cls-2" x="66.16" y="92.91" width="1.59" height="1.55"/>
      <rect class="cls-2" x="68.42" y="92.91" width="1.59" height="1.55"/>
      <path class="cls-2" d="M71.97,99.79h-1.96v-4.36h-1.59v4.36h-3.35v-.95c0-1.28-.44-2.21-1.31-2.79-.6-.42-1.32-.63-2.18-.63h-.52v1.55c.57.01.98.05,1.22.13.26.08.48.2.7.38.33.27.49.73.49,1.37v.94h-3.52v1.55h13.62v-8.43h-1.59v6.88Z"/>
      <rect class="cls-2" x="74.76" y="92.91" width="1.59" height="8.43"/>
      <path class="cls-2" d="M77.58,97.79v1.17c0,1.42,1.03,2.37,2.51,2.37h.36v.44c0,.13-.04.25-.09.33-.08.14-.28.21-.59.21h-2.19v1.58h2.04c1.57,0,2.43-.82,2.43-2.31v-6.16h-1.97c-1.48,0-2.51.97-2.51,2.36M80.45,99.79h-.41c-.58,0-.87-.33-.87-.96v-.89c0-.64.29-.95.87-.95h.41v2.8Z"/>
      <path class="cls-2" d="M87.32,101.84c0-.33.2-.5.6-.5h3.32v-1.55h-1.47c-.55,0-.94-.08-1.15-.25-.39-.27-.58-.65-.58-1.12,0-.87.59-1.43,1.51-1.43h1.71v-1.55h-1.78c-.87,0-1.59.3-2.18.87-.59.57-.87,1.29-.87,2.15,0,.55.17,1.06.53,1.49-.83.4-1.23,1.02-1.23,1.85s.56,1.67,1.31,1.93c.32.12.78.17,1.34.17h3.26v-1.58h-3.73c-.4,0-.6-.16-.6-.48"/>
      <rect class="cls-2" x="92.85" y="92.91" width="1.59" height="8.43"/>
      <path class="cls-2" d="M104.14,99.79h-3.35v-.95c0-1.28-.44-2.21-1.31-2.79-.6-.42-1.32-.63-2.18-.63h-.52v1.55c.57.01.98.05,1.22.13.25.08.48.2.7.38.34.27.49.73.49,1.37v.94h-3.52v1.55h10.06v-5.91h-1.59v4.36Z"/>
      <rect class="cls-2" x="104.14" y="102.32" width="1.59" height="1.58"/>
      <rect class="cls-2" x="101.88" y="102.32" width="1.59" height="1.58"/>
      <polygon class="cls-2" points="112.07 99.79 110.49 99.79 110.49 92.91 108.89 92.91 108.89 99.79 106.93 99.79 106.93 101.34 113.69 101.34 113.69 92.91 112.07 92.91 112.07 99.79"/>
      <path class="cls-2" d="M107.82,103.61c0-.28.13-.42.37-.42h.55v-.61h-.48c-.62,0-1.07.44-1.07,1.06,0,.1.04.22.08.34h-.35v.6h2.06v-.6h-.74c-.28,0-.43-.12-.43-.37"/>
      <rect class="cls-2" x="114.89" y="92.91" width="1.6" height="8.43"/>
      <rect class="cls-2" x="123.07" y="92.91" width="1.61" height="1.55"/>
      <rect class="cls-2" x="125.33" y="92.91" width="1.6" height="1.55"/>
      <path class="cls-2" d="M122.68,97.87c0,1.76,1.27,3.15,3.04,3.46v.45c-.07.44-.2.54-.7.54h-2.54c-.49,0-.63-.09-.69-.54v-4.25h-1.59v4.06c0,1.49.87,2.31,2.43,2.31h2.25c1.57,0,2.43-.82,2.43-2.31v-6.16h-1.86c-2.03,0-2.77,1.04-2.77,2.44M125.72,99.79c-.79-.38-1.39-1.17-1.39-1.9,0-.6.33-.9,1.02-.9h.37v2.8Z"/>
      <path class="cls-2" d="M128.5,97.79v1.17c0,1.42,1.03,2.37,2.51,2.37h.36v.44c0,.13-.04.25-.09.33-.08.14-.28.21-.59.21h-2.2v1.58h2.05c1.56,0,2.43-.82,2.43-2.31v-6.16h-1.97c-1.48,0-2.51.97-2.51,2.36M131.38,99.79h-.41c-.57,0-.87-.33-.87-.96v-.89c0-.64.29-.95.87-.95h.41v2.8Z"/>
      <rect class="cls-2" x="141.26" y="92.91" width="1.59" height="1.55"/>
      <path class="cls-2" d="M151.57,95.43h-4.28v4.36h-.9v-2.53h-1.62v2.53h-1.92v-4.36h-1.59v4.36h-1.96v-.95c0-1.28-.44-2.21-1.31-2.79-.6-.42-1.32-.63-2.18-.63h-.52v1.55c.58.01.98.05,1.22.13.25.08.48.2.7.38.33.27.49.73.49,1.37v.94h-3.52v1.55h19.91v-3.55c0-1.39-1.02-2.36-2.52-2.36M152.49,99.79h-3.61v-2.8h2.74c.59,0,.87.31.87.95v1.85Z"/>
      <polygon class="cls-2" points="36.48 111.89 34.41 111.89 34.41 114.56 33.18 114.56 33.18 111.89 31.16 111.89 31.16 110.72 33.17 110.72 33.17 108.02 34.41 108.02 34.41 110.69 36.48 110.69 36.48 111.89"/>
      <path class="cls-2" d="M37.44,112.95c0-.23.05-.44.14-.64.09-.2.21-.37.37-.52.15-.15.34-.26.55-.35.21-.08.43-.13.67-.13s.47.04.67.13c.21.09.39.2.54.35.15.15.28.32.37.52.09.2.14.41.14.64,0,.35-.09.65-.26.88-.18.24-.39.41-.64.53-.26.12-.53.18-.84.18s-.57-.06-.83-.18c-.25-.12-.47-.29-.63-.53-.17-.23-.25-.53-.25-.88M38.35,112.9c0,.09.02.18.06.27.04.09.1.17.17.24.07.06.16.11.26.15.1.04.2.05.31.05.11,0,.22-.02.31-.05.1-.04.18-.09.25-.15.07-.07.13-.15.17-.24.04-.09.06-.18.06-.27,0-.1-.02-.2-.06-.29-.04-.09-.1-.16-.17-.22-.07-.06-.16-.11-.25-.15-.09-.04-.2-.06-.31-.06-.1,0-.21.02-.31.06-.1.04-.19.09-.26.15-.07.06-.13.14-.17.22-.04.09-.06.18-.06.29"/>
      <polygon class="cls-2" points="44.65 112.07 44.65 114.55 42.01 114.55 42.01 113.35 43.4 113.35 43.4 109.23 41.98 109.23 41.98 108.02 44.64 108.02 44.64 110.86 45.76 110.85 45.76 107.99 48.41 107.99 48.41 109.22 47.01 109.21 47.01 113.33 48.39 113.33 48.39 114.53 45.76 114.53 45.76 112.06 44.65 112.07"/>
      <polygon class="cls-2" points="50.91 114.62 49.67 114.61 49.67 108.02 50.91 108.02 50.91 114.62"/>
      <polygon class="cls-2" points="57.74 114.81 52.44 113.21 55.21 111.37 52.42 109.55 57.71 107.88 57.71 109.09 54.92 109.9 57.3 111.3 55.14 112.77 57.74 113.58 57.74 114.81"/>
      <path class="cls-2" d="M63.58,114.57h-4.72v-6.59h4.65v1.24l-3.03,4.14h3.08v1.21ZM62.22,109.2h-2.12v2.98l2.12-2.98Z"/>
      <polygon class="cls-2" points="70.38 111.89 68.3 111.89 68.3 114.56 67.08 114.56 67.08 111.89 65.05 111.89 65.05 110.72 67.07 110.72 67.07 108.02 68.3 108.02 68.3 110.69 70.38 110.69 70.38 111.89"/>
      <polygon class="cls-2" points="76.46 114.62 75.21 114.61 75.21 108.02 76.46 108.02 76.46 114.62"/>
      <path class="cls-2" d="M81.66,113.15c0-.2.04-.38.13-.55.09-.17.2-.32.35-.45.14-.13.32-.23.52-.31.2-.07.42-.12.65-.12s.44.04.65.12c.2.08.37.18.52.31.15.13.26.28.35.45.08.18.13.36.13.55s-.04.38-.13.56c-.09.17-.2.33-.35.46-.15.13-.32.23-.52.3-.2.07-.42.1-.65.1s-.45-.03-.65-.1c-.2-.07-.38-.17-.52-.3-.15-.14-.26-.29-.35-.46-.09-.17-.13-.36-.13-.56M81.71,109.46c0-.2.04-.39.13-.57.09-.18.2-.33.34-.45.14-.13.31-.23.51-.31.2-.08.41-.12.63-.12s.45.04.65.12c.2.08.37.18.52.31.14.13.26.28.35.45.09.18.13.36.13.57s-.04.38-.13.56c-.09.17-.2.33-.35.46-.14.13-.32.24-.52.31-.2.07-.42.1-.65.1s-.44-.03-.63-.1c-.2-.07-.37-.17-.51-.31-.14-.13-.26-.29-.34-.46-.08-.18-.13-.36-.13-.56M82.58,109.46c0,.07.02.14.06.22.03.07.08.14.15.19.06.05.14.1.23.13.09.03.19.05.29.05s.19-.02.27-.05c.08-.03.16-.08.23-.13.07-.06.12-.12.16-.19.03-.07.05-.15.05-.22,0-.09-.02-.17-.05-.24-.04-.07-.09-.13-.16-.19-.07-.05-.15-.09-.23-.12-.08-.03-.17-.04-.27-.04s-.2.01-.29.04c-.09.03-.17.07-.23.12-.06.05-.11.12-.15.19-.04.08-.06.15-.06.24M82.59,113.14c0,.08.02.17.05.24.03.08.08.15.14.2.07.05.14.1.23.13.08.03.18.05.28.05s.19-.02.28-.05c.08-.03.16-.08.22-.13.06-.05.11-.12.15-.2.04-.08.05-.16.05-.24s-.02-.16-.05-.24c-.04-.08-.09-.14-.15-.2-.07-.05-.14-.1-.22-.13-.09-.03-.18-.05-.28-.05s-.19.02-.28.05c-.08.03-.16.07-.23.13-.06.06-.11.12-.14.2-.03.08-.05.15-.05.24"/>
      <path class="cls-2" d="M92.58,111.3c0,.94-.34,1.73-1.02,2.38-.67.61-1.44.92-2.33.92-.94,0-1.73-.33-2.34-.98-.62-.66-.93-1.43-.94-2.33.01-.96.34-1.75.98-2.37.69-.6,1.46-.9,2.3-.9,1,0,1.8.32,2.42.98.62.65.93,1.42.93,2.3M87.05,111.3c0,.31.06.61.18.88.11.28.27.51.47.73.2.21.43.37.7.49.27.12.55.18.83.18.33,0,.62-.06.89-.18.27-.12.51-.28.71-.49.2-.21.36-.45.48-.73.11-.27.17-.57.17-.88s-.06-.61-.17-.89c-.12-.28-.27-.53-.48-.73-.2-.2-.44-.37-.71-.49-.27-.12-.56-.18-.88-.18-.29,0-.58.06-.85.18-.27.12-.51.28-.7.49-.2.2-.35.44-.46.73-.12.28-.18.58-.18.89M89.89,111.29c0,.16-.07.31-.21.44-.05.08-.12.12-.19.15-.08.03-.16.05-.26.05-.16,0-.3-.07-.43-.2-.13-.13-.2-.28-.2-.44,0-.17.06-.32.2-.44.13-.12.27-.19.43-.19.18,0,.34.06.46.19.13.13.19.27.19.44"/>
      <path class="cls-2" d="M100.36,111.37c0,.89-.33,1.66-1.01,2.3-.66.61-1.44.92-2.33.92-.95,0-1.73-.33-2.35-.98-.62-.66-.93-1.47-.93-2.44,0-.88.34-1.63,1.03-2.26.69-.6,1.46-.9,2.31-.9.91,0,1.69.32,2.32.98.64.65.95,1.45.95,2.38M94.85,111.3c0,.31.05.6.17.88.11.28.27.51.47.72.2.21.43.37.71.49.27.12.56.18.86.18s.59-.06.86-.18c.27-.12.51-.28.71-.49.2-.21.36-.45.47-.72.12-.28.17-.57.17-.88s-.06-.61-.17-.89c-.11-.28-.27-.53-.47-.73-.2-.2-.44-.37-.71-.49-.27-.12-.56-.18-.86-.18s-.59.06-.86.18c-.27.12-.51.28-.71.49-.2.2-.35.44-.47.73-.12.28-.17.58-.17.89"/>
      <path class="cls-2" d="M107.91,111.3c0,.94-.35,1.73-1.02,2.38-.67.61-1.44.92-2.33.92-.94,0-1.73-.33-2.35-.98-.62-.66-.93-1.43-.94-2.33.01-.96.34-1.75.98-2.37.69-.6,1.46-.9,2.3-.9,1,0,1.8.32,2.42.98.62.65.93,1.42.94,2.3M102.38,111.3c0,.31.06.61.18.88.11.28.27.51.47.73.2.21.43.37.7.49.27.12.55.18.83.18.33,0,.62-.06.89-.18.27-.12.51-.28.71-.49.2-.21.36-.45.47-.73.12-.27.17-.57.17-.88s-.06-.61-.17-.89c-.12-.28-.27-.53-.47-.73-.2-.2-.44-.37-.71-.49-.27-.12-.56-.18-.88-.18-.29,0-.58.06-.86.18-.28.12-.51.28-.7.49-.19.2-.35.44-.46.73-.12.28-.18.58-.18.89M105.22,111.29c0,.16-.07.31-.21.44-.05.08-.12.12-.19.15-.08.03-.16.05-.26.05-.16,0-.31-.07-.44-.2-.13-.13-.19-.28-.19-.44,0-.17.06-.32.19-.44.13-.12.28-.19.44-.19.18,0,.33.06.46.19.13.13.19.27.19.44"/>
      <polygon class="cls-2" points="119.01 114.59 117.77 114.58 115.85 109.57 114.09 114.57 112.85 114.57 115.21 108.02 116.47 108.02 119.01 114.59"/>
      <path class="cls-2" d="M123.79,113.15c0-.2.04-.38.13-.55.09-.17.2-.32.35-.45.14-.13.32-.23.52-.31.2-.07.42-.12.64-.12s.45.04.65.12c.2.08.37.18.52.31.14.13.26.28.35.45.08.18.13.36.13.55s-.04.38-.13.56c-.09.17-.21.33-.35.46-.15.13-.32.23-.52.3-.2.07-.42.1-.65.1s-.45-.03-.64-.1c-.2-.07-.38-.17-.52-.3-.15-.14-.26-.29-.35-.46-.09-.17-.13-.36-.13-.56M123.83,109.46c0-.2.04-.39.13-.57.09-.18.2-.33.34-.45.15-.13.32-.23.51-.31.2-.08.41-.12.63-.12s.44.04.65.12c.2.08.37.18.52.31.14.13.26.28.35.45.09.18.13.36.13.57s-.05.38-.13.56c-.09.17-.2.33-.35.46-.15.13-.32.24-.52.31-.2.07-.42.1-.65.1s-.44-.03-.63-.1c-.2-.07-.37-.17-.51-.31-.14-.13-.26-.29-.34-.46-.09-.18-.13-.36-.13-.56M124.7,109.46c0,.07.02.14.06.22.03.07.08.14.14.19.06.05.14.1.23.13.09.03.19.05.29.05s.19-.02.28-.05c.08-.03.16-.08.23-.13.07-.06.12-.12.16-.19.03-.07.05-.15.05-.22,0-.09-.02-.17-.05-.24-.04-.07-.09-.13-.16-.19-.07-.05-.14-.09-.23-.12-.08-.03-.18-.04-.28-.04s-.19.01-.29.04c-.09.03-.16.07-.23.12-.06.05-.11.12-.14.19-.04.08-.06.15-.06.24M124.71,113.14c0,.08.02.17.05.24.03.08.08.15.15.2.06.05.14.1.22.13.09.03.18.05.28.05s.19-.02.28-.05c.08-.03.16-.08.22-.13.07-.05.12-.12.15-.2.03-.08.05-.16.05-.24s-.02-.16-.05-.24c-.04-.08-.09-.14-.15-.2-.06-.05-.14-.1-.22-.13-.08-.03-.18-.05-.28-.05s-.19.02-.28.05c-.09.03-.16.07-.22.13-.07.06-.11.12-.15.2-.03.08-.05.15-.05.24"/>
      <path class="cls-2" d="M134.7,111.3c0,.94-.34,1.73-1.01,2.38-.67.61-1.44.92-2.33.92-.94,0-1.73-.33-2.35-.98-.62-.66-.93-1.43-.95-2.33.01-.96.34-1.75.98-2.37.69-.6,1.45-.9,2.3-.9,1,0,1.8.32,2.42.98.62.65.93,1.42.94,2.3M129.17,111.3c0,.31.06.61.17.88.12.28.27.51.47.73.2.21.43.37.71.49.27.12.55.18.84.18.33,0,.62-.06.89-.18.27-.12.51-.28.71-.49.2-.21.36-.45.47-.73.12-.27.18-.57.18-.88s-.06-.61-.18-.89c-.11-.28-.27-.53-.47-.73-.2-.2-.44-.37-.71-.49-.27-.12-.56-.18-.88-.18-.29,0-.58.06-.85.18-.28.12-.51.28-.7.49-.2.2-.35.44-.47.73-.11.28-.17.58-.17.89M132.01,111.29c0,.16-.07.31-.21.44-.05.08-.11.12-.19.15-.07.03-.16.05-.25.05-.16,0-.31-.07-.44-.2-.13-.13-.19-.28-.19-.44,0-.17.06-.32.19-.44.13-.12.27-.19.44-.19.18,0,.33.06.46.19.13.13.19.27.19.44"/>
      <polygon class="cls-2" points="140.4 113.38 140.4 108.04 141.64 108.04 141.64 114.57 136.1 114.57 136.1 108.04 137.34 108.04 137.34 113.38 140.4 113.38"/>
      <path class="cls-2" d="M142.86,113.15c0-.2.04-.38.13-.55.09-.17.21-.32.35-.45.14-.13.32-.23.52-.31.2-.07.42-.12.65-.12s.45.04.65.12c.2.08.37.18.52.31.15.13.26.28.35.45.09.18.13.36.13.55s-.04.38-.13.56c-.08.17-.2.33-.35.46-.15.13-.32.23-.52.3-.2.07-.42.1-.65.1s-.44-.03-.65-.1c-.2-.07-.38-.17-.52-.3-.14-.14-.26-.29-.35-.46-.09-.17-.13-.36-.13-.56M142.9,109.46c0-.2.05-.39.13-.57.09-.18.2-.33.35-.45.14-.13.32-.23.51-.31.2-.08.41-.12.63-.12s.45.04.64.12c.2.08.38.18.52.31.14.13.26.28.35.45.09.18.13.36.13.57s-.04.38-.13.56c-.09.17-.21.33-.35.46-.14.13-.32.24-.52.31-.2.07-.41.1-.64.1s-.44-.03-.63-.1c-.19-.07-.37-.17-.51-.31-.15-.13-.26-.29-.35-.46-.08-.18-.13-.36-.13-.56M143.78,109.46c0,.07.02.14.06.22.03.07.08.14.14.19.06.05.14.1.23.13.09.03.19.05.29.05s.19-.02.28-.05c.09-.03.16-.08.23-.13.07-.06.12-.12.16-.19.03-.07.05-.15.05-.22,0-.09-.02-.17-.05-.24-.03-.07-.09-.13-.16-.19-.07-.05-.15-.09-.23-.12-.08-.03-.18-.04-.28-.04s-.2.01-.29.04c-.09.03-.17.07-.23.12-.06.05-.11.12-.14.19-.03.08-.06.15-.06.24M143.79,113.14c0,.08.01.17.05.24.03.08.08.15.14.2.07.05.14.1.22.13.09.03.18.05.28.05s.19-.02.27-.05c.09-.03.16-.08.22-.13.06-.05.11-.12.15-.2.03-.08.05-.16.05-.24s-.02-.16-.05-.24c-.04-.08-.09-.14-.15-.2-.07-.05-.14-.1-.22-.13-.08-.03-.17-.05-.27-.05s-.19.02-.28.05c-.09.03-.16.07-.22.13-.06.06-.11.12-.14.2-.03.08-.05.15-.05.24"/>
      <polygon class="cls-2" points="153.4 114.59 152.15 114.58 150.24 109.57 148.48 114.57 147.24 114.57 149.6 108.02 150.86 108.02 153.4 114.59"/>
      <polygon class="cls-2" points="160.53 114.59 159.29 114.58 157.37 109.57 155.62 114.57 154.38 114.57 156.73 108.02 157.99 108.02 160.53 114.59"/>
      <path class="cls-2" d="M161.62,113.15c0-.2.04-.38.13-.55.08-.17.2-.32.35-.45.15-.13.32-.23.52-.31.2-.07.42-.12.65-.12s.45.04.65.12c.2.08.38.18.52.31.15.13.26.28.35.45.09.18.13.36.13.55s-.04.38-.13.56c-.09.17-.2.33-.35.46-.14.13-.32.23-.52.3-.2.07-.42.1-.65.1s-.44-.03-.65-.1c-.21-.07-.38-.17-.52-.3-.15-.14-.26-.29-.35-.46-.09-.17-.13-.36-.13-.56M161.66,109.46c0-.2.04-.39.13-.57.09-.18.2-.33.35-.45.14-.13.31-.23.51-.31.2-.08.41-.12.63-.12s.45.04.65.12c.2.08.37.18.52.31.14.13.26.28.35.45.09.18.13.36.13.57s-.05.38-.13.56c-.09.17-.21.33-.35.46-.15.13-.32.24-.52.31-.2.07-.42.1-.65.1s-.43-.03-.63-.1c-.2-.07-.37-.17-.51-.31-.14-.13-.26-.29-.35-.46-.09-.18-.13-.36-.13-.56M162.53,109.46c0,.07.02.14.05.22.03.07.08.14.15.19.06.05.14.1.23.13.09.03.19.05.29.05s.19-.02.28-.05c.08-.03.16-.08.23-.13.07-.06.12-.12.16-.19.03-.07.05-.15.05-.22,0-.09-.02-.17-.05-.24-.04-.07-.09-.13-.16-.19-.07-.05-.14-.09-.23-.12-.08-.03-.18-.04-.28-.04s-.2.01-.29.04c-.09.03-.16.07-.23.12-.06.05-.11.12-.15.19-.04.08-.05.15-.05.24M162.54,113.14c0,.08.02.17.05.24.03.08.08.15.14.2.07.05.14.1.22.13.09.03.18.05.28.05s.19-.02.28-.05c.08-.03.16-.08.22-.13.06-.05.12-.12.15-.2.04-.08.06-.16.06-.24s-.02-.16-.06-.24c-.04-.08-.09-.14-.15-.2-.06-.05-.14-.1-.22-.13-.09-.03-.18-.05-.28-.05s-.19.02-.28.05c-.09.03-.16.07-.22.13-.06.06-.11.12-.14.2-.03.08-.05.15-.05.24"/>
      <path class="cls-2" d="M60.8.11v61.02h-22.63c-12.55,0-22.76-10.42-22.76-22.97s10.21-22.88,22.76-22.88h16.7s0-15.29,0-15.29h-16.7C17.12,0,0,17.12,0,38.16s17.12,38.28,38.16,38.28h37.74V15.4h21.8c12.55,0,22.76,10.32,22.76,22.87s-10.21,22.76-22.76,22.76h-16.04v15.4h16.04c21.03,0,38.15-17.1,38.16-38.14h0c0-.1-.01-.2-.01-.3,0-.01,0-.02,0-.04.37-13.76,10.67-22.58,23.13-22.58,5.05,0,9.71,1.69,13.47,4.5l10.89-10.89C176.75,3.45,168.26.1,158.99.1c-12.54,0-23.68,6.13-30.57,15.55C121.46,6.23,110.28.11,97.7.11h-36.91Z"/>
      <path class="cls-1" d="M195.78,35.65h-29.84v11.22h13.26c-3.24,8.51-11.46,14.58-21.09,14.58-7.7,0-14.49-3.9-18.57-9.8-1.67,5.3-4.32,10.16-7.71,14.39,6.82,6.6,16.06,10.7,26.28,10.7s19.7-4.16,26.54-10.89v10.75h11.34v-40.94h-.2Z"/>
    </g>
  </g>
</svg>