<?xml version="1.0" encoding="UTF-8"?>
<svg id="Calque_2" data-name="Calque 2" xmlns="http://www.w3.org/2000/svg" viewBox="0 0 1000 664.71">
  <defs>
    <style>
      .cls-1 {
        fill: #323e48;
      }

      .cls-1, .cls-2 {
        stroke-width: 0px;
      }

      .cls-2 {
        fill: #638c1c;
      }
    </style>
  </defs>
  <g id="Calque_1-2" data-name="Calque 1">
    <g>
      <g>
        <path class="cls-1" d="M310.26.58v311.28h-115.46c-64.02,0-116.1-53.15-116.1-117.18s52.09-116.69,116.1-116.69l85.19.05V0h-85.19C87.44,0,.11,87.34.11,194.69s87.34,195.27,194.69,195.27h192.53V78.58h111.23c64.01,0,116.1,52.67,116.1,116.69s-52.09,116.11-116.1,116.11h-81.83v78.58h81.83c107.29,0,194.6-87.25,194.68-194.54h.05c0-.52-.08-1.03-.08-1.54v-.18c1.89-70.18,54.45-115.2,117.97-115.2,25.78,0,49.52,8.61,68.74,22.96l55.53-55.54C901.81,17.61,858.46.5,811.16.5c-63.99,0-120.77,31.29-155.96,79.34C619.71,31.81,562.71.58,498.55.58h-188.29Z"/>
        <path class="cls-2" d="M998.85,181.86h-152.21v57.21h67.63c-16.54,43.4-58.47,74.37-107.61,74.37-39.29,0-73.91-19.89-94.71-50.02-8.53,27.03-22.04,51.8-39.35,73.42,34.79,33.66,81.95,54.59,134.06,54.59s100.51-21.22,135.41-55.54v54.83h57.82v-208.86h-1.05Z"/>
      </g>
      <g>
        <path class="cls-2" d="M356.29,614.64h-8.8v10.67h8.8c3.79,0,5.66-2.48,5.66-5.31s-1.92-5.36-5.66-5.36Z"/>
        <path class="cls-2" d="M452.28,494.48h-2.06c-2.86,0-4.33,1.6-4.33,4.86v4.53c0,3.26,1.46,4.92,4.33,4.92h2.06v-14.31Z"/>
        <path class="cls-2" d="M298.07,576.5c-.59,0-1.06.2-1.5.62-.42.41-.62.87-.62,1.45s.2,1.03.64,1.44c.45.43.92.63,1.48.63s.99-.19,1.4-.61c.41-.41.61-.88.61-1.46s-.19-1.04-.61-1.46c-.41-.41-.86-.6-1.4-.6Z"/>
        <path class="cls-2" d="M740.33,580.63c.55,0,.99-.19,1.4-.61.41-.41.61-.88.61-1.46s-.19-1.04-.61-1.46c-.41-.41-.86-.6-1.4-.6-.59,0-1.06.2-1.5.62-.42.41-.62.87-.62,1.45s.2,1.03.64,1.44c.45.43.92.63,1.48.63Z"/>
        <path class="cls-2" d="M385.19,580.63c.55,0,.99-.19,1.4-.61.41-.41.61-.88.61-1.46s-.19-1.04-.61-1.46c-.41-.41-.86-.6-1.4-.6-.59,0-1.06.2-1.5.62-.42.41-.62.87-.62,1.45s.2,1.03.64,1.44c.45.43.92.63,1.48.63Z"/>
        <path class="cls-2" d="M629.44,614.64h-8.8v10.67h8.8c3.79,0,5.66-2.48,5.66-5.31s-1.92-5.36-5.66-5.36Z"/>
        <path class="cls-2" d="M211.54,576.5c-.59,0-1.06.2-1.5.62-.42.41-.62.87-.62,1.45s.2,1.03.64,1.44c.45.43.92.63,1.48.63s.99-.19,1.4-.61c.41-.41.6-.88.6-1.46s-.19-1.05-.61-1.46c-.41-.41-.86-.6-1.4-.6Z"/>
        <path class="cls-2" d="M462.18,578.44c1.96-1.14,3.61-2.68,4.89-4.58,1.05-1.56,1.79-3.27,2.2-5.12h-27.43c.42,1.85,1.15,3.57,2.18,5.13,1.26,1.9,2.9,3.44,4.88,4.58,1.96,1.13,4.19,1.7,6.63,1.7s4.71-.57,6.65-1.7Z"/>
        <path class="cls-2" d="M430.38,613.94h-8.9v10.31h9c3.64,0,5.21-2.73,5.21-4.95-.05-2.43-1.62-5.36-5.31-5.36Z"/>
        <path class="cls-2" d="M628.99,578.57c0,.57.2,1.03.64,1.44.45.43.92.63,1.48.63s.99-.19,1.4-.61c.41-.41.61-.88.61-1.46s-.19-1.04-.61-1.46c-.41-.41-.86-.6-1.4-.6-.59,0-1.06.2-1.5.62-.42.41-.62.87-.62,1.45Z"/>
        <path class="cls-2" d="M665.57,613.94h-8.9v10.31h9c3.64,0,5.21-2.73,5.21-4.95-.05-2.43-1.62-5.36-5.31-5.36Z"/>
        <polygon class="cls-2" points="382.87 629.51 395.06 629.51 388.99 615.14 382.87 629.51"/>
        <path class="cls-2" d="M529.55,567.97l4.58-4.58,10.2,10.3c1.59-2.37,2.4-5.11,2.4-8.17,0-1.98-.37-3.87-1.09-5.61-.73-1.75-1.74-3.33-3.02-4.7-1.27-1.36-2.78-2.43-4.47-3.2-1.68-.76-3.51-1.15-5.44-1.15s-3.88.4-5.58,1.18c-1.71.79-3.22,1.88-4.5,3.23-1.28,1.36-2.28,2.94-2.99,4.69-.7,1.75-1.06,3.62-1.06,5.57s.36,3.82,1.08,5.56c.72,1.75,1.75,3.33,3.04,4.69,1.29,1.36,2.81,2.44,4.52,3.21,1.7.77,3.54,1.15,5.47,1.15,2.46,0,4.8-.66,6.98-1.97l-10.15-10.2Z"/>
        <path class="cls-2" d="M495.55,580.02c.41-.41.61-.88.61-1.46s-.19-1.04-.61-1.46c-.41-.41-.86-.6-1.4-.6-.59,0-1.06.2-1.5.62-.42.41-.62.87-.62,1.45s.2,1.03.64,1.44c.45.43.92.63,1.48.63s.99-.19,1.4-.61Z"/>
        <polygon class="cls-2" points="112.61 629.51 124.8 629.51 118.73 615.14 112.61 629.51"/>
        <polygon class="cls-2" points="839.51 629.51 851.69 629.51 845.63 615.14 839.51 629.51"/>
        <path class="cls-2" d="M82.14,613.94h-8.9v10.31h9c3.64,0,5.21-2.73,5.21-4.95-.05-2.43-1.62-5.36-5.31-5.36Z"/>
        <path class="cls-2" d="M49.85,617.57c0-2.07-1.52-3.59-4.5-3.59h-9.71v6.93h9.61c3.08,0,4.6-1.27,4.6-3.34Z"/>
        <path class="cls-2" d="M773.97,613.38c-6.73,0-11.38,5.05-11.38,11.48s4.65,11.43,11.38,11.43,11.38-4.86,11.38-11.43-4.5-11.48-11.38-11.48Z"/>
        <path class="cls-2" d="M45.25,627.48h-9.61v8.19h9.71c3.54,0,5.21-1.56,5.21-4.04s-1.82-4.15-5.31-4.15Z"/>
        <path class="cls-2" d="M111.14,494.48h-13.65v14.31h17.98v-9.45c0-3.26-1.4-4.86-4.33-4.86Z"/>
        <path class="cls-2" d="M0,458.41v206.31h1000v-206.31H0ZM909.83,473.71h7.99v7.92h-7.99v-7.92ZM898.58,473.71h7.99v7.92h-7.99v-7.92ZM782.58,473.71h7.92v35.08h62.2v-35.08h7.92v12.85h13.38c7.45,0,12.51,4.93,12.51,12.05v10.18h13.79c-.27-.4-.67-.87-1.2-1.33-1.8-2.32-2.73-4.99-2.73-8.06,0-5.12,2.2-8.99,6.46-11.38,1.73-.93,4.33-1.46,7.72-1.46h9.45v30.16h-137.43v-43.01ZM779.98,545.05h16.57v6.46h-9.56v28.03h9.56v6.46h-16.57v-17.27h-5.65v17.27h-16.57v-6.46h9.56v-28.03h-9.56v-6.46h16.57v17.22h5.65v-17.22ZM733.32,574.45c.71-1.19,1.68-2.15,2.88-2.85,1.21-.71,2.59-1.07,4.08-1.07s2.86.36,4.08,1.07c1.21.71,2.18,1.68,2.89,2.89.71,1.22,1.07,2.59,1.07,4.08s-.36,2.87-1.07,4.08c-.71,1.21-1.68,2.18-2.9,2.87-1.21.69-2.58,1.04-4.07,1.04-2.24,0-4.16-.76-5.7-2.26-1.55-1.51-2.34-3.43-2.34-5.72,0-1.53.36-2.92,1.08-4.11ZM722.79,562.27v6.46h-21.78v10.81h21.78v6.46h-28.79v-40.95h28.79v6.46h-21.78v10.75h21.78ZM707.82,596.28v.31l-5.87,7.13h-6.37v-.36l3.74-7.08h8.49ZM708.33,473.71h7.92v43.01h-7.92v-43.01ZM668.64,508.79h9.79v-35.08h7.92v35.08h7.92v-35.08h8.06v43.01h-33.69v-7.92ZM637.15,508.79h17.51v-4.79c0-3.26-.8-5.59-2.47-6.99-1.06-.93-2.2-1.53-3.46-1.93-1.2-.4-3.2-.6-6.06-.66v-7.92h2.6c4.26,0,7.85,1.06,10.85,3.2,4.33,2.99,6.52,7.72,6.52,14.25v12.78h-25.5v-7.92ZM638.02,574.49c.71,1.22,1.07,2.59,1.07,4.08s-.36,2.87-1.07,4.08c-.71,1.21-1.68,2.18-2.9,2.87-1.21.69-2.58,1.04-4.07,1.04-2.24,0-4.16-.76-5.7-2.26-1.55-1.51-2.34-3.43-2.34-5.72,0-1.53.36-2.92,1.08-4.11.71-1.19,1.68-2.15,2.88-2.85,1.21-.71,2.59-1.07,4.08-1.07s2.86.36,4.08,1.07c1.21.71,2.18,1.68,2.89,2.89ZM612.57,473.71h7.99v7.92h-7.99v-7.92ZM489.71,521.97h1c3.93,0,5.86-1.86,5.86-5.46v-29.96h7.92v28.43c0,1.07,0,2-.07,2.73-.27,2.99-1,5.46-2.33,7.33-1.93,2.59-4.46,4.12-7.59,4.52-.93.07-2.2.2-3.73.2h-1.07v-7.79ZM437.97,521.71h10.92c1.53,0,2.53-.34,2.93-1.07.27-.4.47-1,.47-1.66v-2.27h-1.8c-7.39,0-12.52-4.86-12.52-12.12v-5.99c0-7.12,5.12-12.05,12.52-12.05h9.79v31.43c0,7.59-4.33,11.78-12.12,11.78h-10.19v-8.06ZM423.92,473.71h7.92v43.01h-7.92v-43.01ZM426.58,579.54v6.46h-24.5v-6.46h8.75v-28.03h-8.75v-6.46h24.5v6.46h-8.74v28.03h8.74ZM384.24,508.79h9.79v-35.08h7.92v35.08h7.92v-35.08h8.06v43.01h-33.69v-7.92ZM381.06,571.6c1.21-.71,2.59-1.07,4.08-1.07s2.86.36,4.08,1.07c1.21.71,2.18,1.68,2.89,2.89.71,1.22,1.07,2.59,1.07,4.08s-.36,2.87-1.07,4.08c-.71,1.21-1.69,2.18-2.9,2.87-1.21.69-2.58,1.04-4.07,1.04-2.24,0-4.16-.76-5.7-2.26-1.55-1.51-2.34-3.43-2.34-5.72,0-1.53.36-2.92,1.08-4.11.71-1.19,1.68-2.15,2.88-2.85ZM310.18,473.71h7.92v7.92h-7.92v-7.92ZM298.93,473.71h7.92v7.92h-7.92v-7.92ZM129.39,473.71h7.92v35.08h121.93v-22.24h7.92v22.24h43.02v-22.24h7.92v22.24h52.08v-9.45c0-3.26-1.4-4.86-4.2-4.86h-11.78v-7.92h11.52c7.39,0,12.52,4.93,12.52,12.05v18.11h-248.84v-43.01ZM317.51,586.01v-40.95h7.01v34.49h15.91v-34.49h7.01v40.95h-29.93ZM327.44,596.28v.31l-5.87,7.13h-6.37v-.36l3.74-7.08h8.49ZM267.16,521.71v8.06h-7.92v-8.06h7.92ZM238.05,557.24c.68.37,1.31.71,1.89,1.04l10.6,6.13v4.21l-21.56,19.27v-8.35l13.02-11.57c.29-.25.59-.5.92-.77-.51-.25-.98-.51-1.38-.77l-12.56-7.41v-4.39l21.56-10.87v6.99l-7,3.56c-1.27.65-2.55,1.3-3.84,1.93-.61.3-1.22.59-1.83.88.06.03.12.07.18.1ZM79.98,508.79h9.58v-35.08h7.92v12.85h13.38c7.46,0,12.52,4.93,12.52,12.05v18.11h-43.41v-7.92ZM58.55,634.26c-1.06,5.71-5.81,8.29-12.89,8.29h-17.75v-35.4h17.44c6.73,0,12.29,3.03,12.29,9.61,0,2.93-1.32,5.67-4.71,7.23,4.5,1.62,6.37,6.17,5.61,10.27ZM96.75,642.55h-8.75l-9.05-11.63h-5.71v11.63h-7.89v-35.4h16.79c8.55,0,13.09,5.72,13.09,11.93-.05,4.6-1.41,8.7-8.19,11.12l9.71,11.74v.6ZM130.36,642.55l-2.58-6.07h-18.15l-2.58,6.07h-8.5l15.88-35.4h8.6l15.88,35.4h-8.55ZM175.39,642.55h-6.77l-17.6-22.65.31,11.63v11.03h-7.99v-35.4h6.77l17.85,23-.51-11.12v-11.88h7.94v35.4ZM200.85,643.46c-13.5,0-18.86-8.7-18.91-18.36-.05-9.15,5.92-18.76,18.91-18.76,4.85,0,9.36,1.87,13,5.45l-4.96,4.91c-2.12-2.07-5.21-2.93-8.04-2.93-8.04,0-11.17,6.22-11.12,11.37.05,5.16,2.83,11.03,11.12,11.03,2.83,0,6.57-1.27,8.7-3.39l4.91,5.46c-3.64,3.59-8.34,5.21-13.6,5.21ZM218.45,582.65c-.71,1.21-1.69,2.18-2.9,2.87-1.21.69-2.58,1.04-4.07,1.04-2.24,0-4.16-.76-5.7-2.26-1.55-1.51-2.34-3.43-2.34-5.72,0-1.53.36-2.92,1.08-4.11.71-1.18,1.68-2.14,2.88-2.85,1.21-.71,2.59-1.07,4.08-1.07s2.86.36,4.08,1.07c1.21.71,2.18,1.68,2.89,2.88.71,1.22,1.07,2.59,1.07,4.08s-.36,2.87-1.07,4.08ZM251.34,642.6h-7.79v-14.01h-15.83v14.01h-7.89v-35.4h7.89v14.16h15.83v-14.16h7.79v35.4ZM255.91,529.77h-7.92v-8.06h7.92v8.06ZM258.96,579.54l13.02-11.57c.29-.25.59-.5.92-.77-.51-.25-.98-.51-1.38-.77l-12.56-7.41v-4.39l21.56-10.87v6.99l-7,3.56c-1.27.65-2.55,1.3-3.84,1.93-.61.3-1.22.59-1.83.88.06.03.12.07.18.1.68.37,1.31.71,1.89,1.04l10.6,6.13v4.21l-21.56,19.27v-8.35ZM286.87,642.55h-26.95v-35.4h26.24v7.23h-18.51v6.83h17.45v6.92h-17.45v7.13h19.22v7.28ZM302.08,585.51c-1.21.69-2.58,1.04-4.07,1.04-2.24,0-4.16-.76-5.7-2.26-1.55-1.51-2.34-3.43-2.34-5.72,0-1.53.36-2.92,1.08-4.11.71-1.19,1.68-2.15,2.88-2.85,1.21-.71,2.59-1.07,4.08-1.07s2.86.36,4.08,1.07c1.21.71,2.18,1.68,2.89,2.89.71,1.22,1.07,2.59,1.07,4.08s-.36,2.87-1.07,4.08c-.71,1.21-1.68,2.18-2.9,2.87ZM332.7,642.55h-26.95v-35.4h26.24v7.23h-18.51v6.83h17.45v6.92h-17.45v7.13h19.22v7.28ZM356.29,632.54h-8.8v10.01h-7.89v-35.4h16.69c9.05,0,13.55,5.86,13.55,12.69s-4.55,12.59-13.55,12.69ZM400.62,642.55l-2.58-6.07h-18.15l-2.58,6.07h-8.5l15.88-35.4h8.6l15.88,35.4h-8.55ZM444.99,642.55h-8.75l-9.05-11.63h-5.71v11.63h-7.89v-35.4h16.79c8.55,0,13.09,5.72,13.09,11.93-.05,4.6-1.41,8.7-8.19,11.12l9.71,11.74v.6ZM440.55,580.33c-1.88-1.92-3.37-4.17-4.43-6.69-1.07-2.53-1.61-5.26-1.61-8.11s.54-5.63,1.61-8.16c1.06-2.53,2.58-4.78,4.5-6.7,1.92-1.92,4.17-3.45,6.69-4.55,2.54-1.11,5.29-1.67,8.17-1.67s5.59.55,8.14,1.63c2.55,1.08,4.81,2.61,6.73,4.55,1.91,1.93,3.44,4.19,4.54,6.71,1.11,2.54,1.67,5.29,1.67,8.17s-.53,5.46-1.58,7.97c-1.05,2.51-2.54,4.77-4.43,6.72-1.9,1.96-4.16,3.52-6.7,4.64-2.55,1.12-5.37,1.69-8.37,1.69s-5.75-.56-8.28-1.67c-2.52-1.1-4.76-2.63-6.64-4.55ZM481.88,636.99c-3.04,4.35-7.89,6.57-14.41,6.57-13.65,0-18.81-9.45-18.81-18.66,0-9.96,5.87-18.81,18.86-18.81,4.81,0,9.16,1.32,13.2,5.46l-4.91,4.9c-2.17-2.07-5.46-3.13-8.29-3.13-6.72,0-11.12,3.85-11.12,11.58,0,5.06,2.78,11.38,11.12,11.38,2.48,0,4.81-.41,7.53-2.48v-5.67h-8.44v-6.57h15.27v15.43ZM486.06,578.57c0-1.53.36-2.92,1.08-4.11.71-1.19,1.68-2.15,2.88-2.85,1.21-.71,2.59-1.07,4.08-1.07s2.86.36,4.08,1.07c1.21.71,2.18,1.68,2.89,2.89.71,1.22,1.07,2.59,1.07,4.08s-.36,2.87-1.07,4.08c-.71,1.21-1.68,2.18-2.9,2.87-1.21.69-2.58,1.04-4.07,1.04-2.24,0-4.16-.76-5.7-2.26-1.55-1.51-2.34-3.43-2.34-5.72ZM520.95,642.55h-6.77l-17.6-22.65.31,11.63v11.03h-7.99v-35.4h6.77l17.85,23-.51-11.12v-11.88h7.94v35.4ZM517.65,580.22c-1.9-1.96-3.39-4.23-4.43-6.75-1.05-2.53-1.58-5.23-1.58-8.05s.56-5.53,1.67-8.04c1.1-2.5,2.63-4.75,4.54-6.68,1.91-1.93,4.17-3.47,6.69-4.58,2.54-1.11,5.29-1.67,8.17-1.67s5.75.57,8.29,1.7c2.52,1.12,4.76,2.67,6.66,4.6,1.9,1.93,3.4,4.19,4.46,6.69,1.07,2.52,1.61,5.22,1.61,8.03,0,2.47-.44,4.93-1.32,7.32-.76,2.08-1.83,4.01-3.19,5.75l4.91,4.91-4.58,4.58-5.04-5.09c-1.39,1-3.03,1.82-4.9,2.46-2.22.76-4.52,1.15-6.84,1.15-3,0-5.82-.57-8.39-1.69-2.56-1.12-4.83-2.68-6.73-4.64ZM556.47,642.55h-26.95v-35.4h26.24v7.23h-18.51v6.83h17.45v6.92h-17.45v7.13h19.22v7.28ZM570.35,516.72h-59.87v-43.01h7.92v35.08h104.68v-9.45c0-3.26-1.4-4.86-4.2-4.86h-11.78v-7.92h11.52c7.39,0,12.52,4.93,12.52,12.05v18.11h-60.79ZM593.25,628.7h-18.96v-6.42h18.96v6.42ZM598.62,590.83h-21.48v-4.11h21.48v4.11ZM629.44,632.54h-8.8v10.01h-7.89v-35.4h16.69c9.05,0,13.55,5.86,13.55,12.69s-4.55,12.59-13.55,12.69ZM680.18,642.55h-8.75l-9.05-11.63h-5.71v11.63h-7.89v-35.4h16.79c8.55,0,13.09,5.72,13.09,11.93-.05,4.6-1.41,8.7-8.19,11.12l9.71,11.74v.6ZM681.56,569.82h-12v16.19h-7.01v-16.19h-12v-24.77h7.01v18.3h17v-18.3h7.01v24.77ZM713.08,642.55h-26.95v-35.4h26.24v7.23h-18.51v6.83h17.45v6.92h-17.45v7.13h19.22v7.28ZM738.8,642.71h-8.14l-14.77-35.55h8.85l9.96,26.15,9.96-26.15h8.85l-14.72,35.55ZM747.15,519.05c0-4.26,2-7.39,6.13-9.45-1.8-2.2-2.67-4.79-2.67-7.59,0-4.39,1.4-8.06,4.33-10.98,2.93-2.93,6.52-4.46,10.85-4.46h8.86v7.92h-8.52c-4.6,0-7.52,2.86-7.52,7.32,0,2.4.93,4.33,2.86,5.73,1.07.86,3,1.26,5.72,1.26h7.32v7.92h-16.51c-2,0-3,.87-3,2.53s1,2.47,3,2.47h18.57v8.06h-16.25c-2.79,0-5.06-.27-6.66-.87-3.73-1.33-6.52-5.53-6.52-9.85ZM773.97,643.41c-11.33,0-19.12-7.03-19.12-18.56s7.79-18.55,19.12-18.55,19.12,7.03,19.12,18.55-7.79,18.56-19.12,18.56ZM814.95,642.55h-7.89v-14.06l-13.55-20.94v-.4h9.1l8.49,14.06,8.95-14.06h9.05v.4l-14.16,20.94v14.06ZM857.25,642.55l-2.58-6.07h-18.15l-2.58,6.07h-8.5l15.88-35.4h8.6l15.88,35.4h-8.55ZM902.28,642.55h-6.77l-17.6-22.65.31,11.63v11.03h-7.99v-35.4h6.77l17.85,23-.51-11.12v-11.88h7.94v35.4ZM927.75,643.46c-13.5,0-18.86-8.7-18.91-18.36-.05-9.15,5.92-18.76,18.91-18.76,4.85,0,9.36,1.87,13,5.45l-4.96,4.91c-2.12-2.07-5.21-2.93-8.04-2.93-8.04,0-11.17,6.22-11.12,11.37.05,5.16,2.83,11.03,11.12,11.03,2.83,0,6.57-1.27,8.7-3.39l4.91,5.46c-3.64,3.59-8.34,5.21-13.6,5.21ZM973.69,642.55h-26.95v-35.4h26.24v7.23h-18.51v6.83h17.45v6.92h-17.45v7.13h19.22v7.28Z"/>
        <path class="cls-2" d="M467.04,557.15c-1.29-1.9-2.96-3.44-4.94-4.59-1.96-1.13-4.17-1.7-6.57-1.7s-4.53.57-6.53,1.68c-2.01,1.13-3.69,2.66-4.98,4.55-1.06,1.56-1.79,3.29-2.16,5.17h27.41c-.42-1.85-1.17-3.56-2.23-5.12Z"/>
        <path class="cls-2" d="M878.53,499.34c0-3.26-1.47-4.86-4.26-4.86h-13.65v14.31h17.91v-9.45Z"/>
        <path class="cls-2" d="M912.09,507.79v-13.31h-2c-3.79,0-5.73,1.6-5.73,4.79,0,3.93,2.6,6.72,7.72,8.52Z"/>
      </g>
    </g>
  </g>
</svg>